<svg width="20.000000" height="20.000000" viewBox="0 0 20 20" fill="none" xmlns="http://www.w3.org/2000/svg" xmlns:xlink="http://www.w3.org/1999/xlink">
	<desc>
			Created with Pixso.
	</desc>
	<defs/>
	<path id="Vector" d="M14.48 0L5.51 0C2.47 0 0 2.47 0 5.51L0 14.48C0 17.52 2.47 20 5.51 20L14.48 20C17.52 20 20 17.52 20 14.48L20 5.51C20 2.47 17.52 0 14.48 0ZM18.22 14.48C18.22 16.54 16.54 18.22 14.48 18.22L5.51 18.22C3.45 18.22 1.77 16.54 1.77 14.48L1.77 5.51C1.77 3.45 3.45 1.77 5.51 1.77L14.48 1.77C16.54 1.77 18.22 3.45 18.22 5.51L18.22 14.48L18.22 14.48Z" fill="#292929" fill-opacity="1.000000" fill-rule="nonzero"/>
	<path id="Vector" d="M10 4.84C7.15 4.84 4.84 7.15 4.84 10C4.84 12.84 7.15 15.15 10 15.15C12.84 15.15 15.15 12.84 15.15 10C15.15 7.15 12.84 4.84 10 4.84ZM10 13.37C8.13 13.37 6.62 11.86 6.62 10C6.62 8.13 8.13 6.62 10 6.62C11.86 6.62 13.37 8.13 13.37 10C13.37 11.86 11.86 13.37 10 13.37Z" fill="#292929" fill-opacity="1.000000" fill-rule="nonzero"/>
	<path id="Vector" d="M15.36 3.34C15.02 3.34 14.69 3.48 14.45 3.72C14.2 3.96 14.06 4.3 14.06 4.64C14.06 4.98 14.2 5.32 14.45 5.56C14.69 5.8 15.02 5.94 15.36 5.94C15.71 5.94 16.04 5.8 16.29 5.56C16.53 5.32 16.67 4.98 16.67 4.64C16.67 4.3 16.53 3.96 16.29 3.72C16.04 3.48 15.71 3.34 15.36 3.34Z" fill="#292929" fill-opacity="1.000000" fill-rule="nonzero"/>
</svg>
