<svg width="22.000000" height="11.916656" viewBox="0 0 22 11.9167" fill="none" xmlns="http://www.w3.org/2000/svg" xmlns:xlink="http://www.w3.org/1999/xlink">
	<desc>
			Created with Pixso.
	</desc>
	<defs/>
	<path d="M10.76 11.86L12.07 11.86C12.07 11.86 12.47 11.82 12.67 11.61C12.86 11.42 12.85 11.06 12.85 11.06C12.85 11.06 12.83 9.39 13.65 9.14C14.46 8.9 15.49 10.76 16.59 11.48C17.42 12.02 18.05 11.9 18.05 11.9L20.99 11.86C20.99 11.86 22.53 11.77 21.8 10.62C21.74 10.53 21.37 9.78 19.61 8.22C17.77 6.6 18.02 6.86 20.24 4.06C21.59 2.35 22.13 1.3 21.96 0.85C21.8 0.43 20.81 0.54 20.81 0.54L17.5 0.56C17.5 0.56 17.25 0.53 17.07 0.63C16.89 0.73 16.78 0.97 16.78 0.97C16.78 0.97 16.26 2.29 15.56 3.42C14.08 5.79 13.5 5.92 13.25 5.77C12.69 5.43 12.83 4.39 12.83 3.65C12.83 1.35 13.2 0.39 12.12 0.14C11.76 0.06 11.49 0.01 10.57 0C9.39 -0.01 8.39 0 7.83 0.26C7.45 0.44 7.16 0.83 7.34 0.85C7.56 0.88 8.05 0.98 8.32 1.32C8.66 1.76 8.64 2.74 8.64 2.74C8.64 2.74 8.84 5.45 8.19 5.78C7.74 6.02 7.13 5.54 5.82 3.39C5.14 2.29 4.64 1.07 4.64 1.07C4.64 1.07 4.54 0.84 4.36 0.72C4.15 0.57 3.86 0.52 3.86 0.52L0.71 0.54C0.71 0.54 0.24 0.55 0.07 0.75C-0.09 0.92 0.05 1.28 0.05 1.28C0.05 1.28 2.52 6.75 5.3 9.5C7.86 12.03 10.76 11.86 10.76 11.86Z" fill="#292929" fill-opacity="1.000000" fill-rule="evenodd"/>
</svg>
